<svg width="308" height="392" viewBox="0 0 308 392" fill="none" xmlns="http://www.w3.org/2000/svg">
<path d="M90.2497 29.0505C81.9133 30.1399 73.9999 32.5002 66.5093 36.1315C59.1395 39.7629 52.6758 44.7256 47.1183 51.0199C41.6816 57.3142 37.3322 64.9399 34.0702 73.8972C30.9289 82.8544 29.3583 93.2036 29.3583 104.945C29.3583 112.45 30.1436 119.228 31.7142 125.28C33.2848 131.211 35.1575 136.295 37.3322 140.532C39.5069 144.647 41.6816 147.855 43.8563 150.155C46.0309 152.455 47.7224 153.604 48.9305 153.604C49.8971 153.604 50.5616 153.181 50.924 152.333C51.4073 151.486 52.1322 151.063 53.0987 151.063C54.0652 151.063 54.7297 151.668 55.0922 152.878C55.4546 154.089 55.6358 155.36 55.6358 156.691C55.6358 159.838 55.0922 162.925 54.0048 165.951C53.0383 168.856 51.7093 171.458 50.0179 173.758C48.3265 175.937 46.3934 177.753 44.2187 179.205C42.044 180.537 39.8089 181.202 37.5134 181.202C34.9763 181.202 32.862 180.416 31.1706 178.842C28.8751 177.39 25.9151 174.787 22.2906 171.035C18.7869 167.161 15.3436 162.199 11.9608 156.146C8.69876 149.973 5.85958 142.65 3.44326 134.177C1.14775 125.583 0 115.839 0 104.945C0 91.8722 1.57061 80.1914 4.71183 69.9027C7.85305 59.493 12.0212 50.4147 17.2163 42.6679C22.5322 34.9211 28.6938 28.3242 35.7012 22.8773C42.7085 17.4303 50.0783 13.0122 57.8105 9.62297C65.5428 6.23375 73.3958 3.81288 81.3697 2.36035C89.3435 0.786784 96.9549 0 104.204 0C106.137 0 108.01 0.423653 109.822 1.27096C111.634 1.99722 113.205 3.08661 114.534 4.53914C115.863 5.87062 116.95 7.50471 117.796 9.44141C118.641 11.3781 119.064 13.4358 119.064 15.6146V273.438C122.568 272.832 125.951 272.409 129.213 272.167C132.596 271.925 135.797 271.683 138.818 271.44C143.167 271.198 145.946 272.53 147.154 275.435C148.483 278.461 148.664 281.85 147.698 285.603C146.852 289.355 145.161 292.805 142.623 295.952C140.086 299.099 137.187 300.733 133.925 300.854C131.146 300.854 128.488 300.915 125.951 301.036C123.534 301.157 121.118 301.338 118.702 301.58C118.098 312.353 116.95 323.066 115.259 333.717C113.567 344.49 110.728 354.174 106.741 362.768C102.754 371.483 97.3174 378.504 90.4309 383.83C83.6652 389.277 74.906 392 64.1534 392C57.8709 392 52.1322 390.85 46.9371 388.55C41.8628 386.371 37.5134 383.285 33.8889 379.29C30.2644 375.417 27.4857 370.817 25.5526 365.491C23.6196 360.166 22.653 354.355 22.653 348.061C22.653 338.62 24.5257 330.268 28.271 323.005C32.1371 315.742 37.2114 309.327 43.4938 303.759C49.8971 298.191 57.146 293.47 65.2407 289.597C73.3354 285.845 81.6717 282.698 90.2497 280.156V29.0505ZM64.8783 363.313C68.986 363.313 72.4897 361.8 75.3893 358.774C78.2889 355.747 80.7052 351.632 82.6382 346.427C84.5713 341.343 86.0211 335.412 86.9876 328.634C88.075 321.976 88.8603 314.956 89.3435 307.572C77.0203 311.324 67.657 316.529 61.2538 323.187C54.8505 329.965 51.6489 338.015 51.6489 347.335C51.6489 353.024 52.9175 357.079 55.4546 359.5C57.9917 362.042 61.133 363.313 64.8783 363.313Z" fill="url(#paint0_linear_36_82)"/>
<path d="M306.627 283.605C308.076 284.574 308.378 286.026 307.533 287.963C306.687 289.9 305.116 291.836 302.821 293.773C300.525 295.831 297.807 297.586 294.666 299.038C291.525 300.491 288.383 301.157 285.242 301.036C282.222 300.915 279.262 300.007 276.362 298.312C273.462 296.618 270.865 294.015 268.569 290.505C266.395 286.874 264.583 282.395 263.133 277.069C261.804 271.743 261.139 265.388 261.139 258.005V85.8805C261.139 78.86 260.414 73.413 258.965 69.5396C257.636 65.6662 256.005 62.8822 254.071 61.1876C252.259 59.3719 250.326 58.3431 248.272 58.101C246.339 57.7378 244.769 57.5563 243.56 57.5563C242.232 57.5563 240.54 57.7378 238.486 58.101C236.432 58.4641 234.439 59.6745 232.506 61.7323C230.694 63.669 229.123 66.8161 227.794 71.1737C226.465 75.4102 225.801 81.5229 225.801 89.5118V290.323C226.163 290.323 226.525 290.505 226.888 290.868C227.371 291.352 227.613 291.776 227.613 292.139C227.613 293.107 226.888 294.076 225.438 295.044C224.109 296.133 222.418 297.102 220.364 297.949C218.31 298.917 215.954 299.644 213.296 300.128C210.759 300.733 208.343 301.036 206.047 301.036C203.631 301.036 201.456 300.733 199.523 300.128C197.711 299.523 196.805 297.465 196.805 293.955V85.8805C196.805 78.86 196.14 73.413 194.811 69.5396C193.603 65.6662 192.093 62.8822 190.281 61.1876C188.468 59.3719 186.535 58.3431 184.481 58.101C182.548 57.7378 180.857 57.5563 179.407 57.5563C178.199 57.5563 176.568 57.7378 174.514 58.101C172.581 58.3431 170.648 59.3719 168.715 61.1876C166.782 62.8822 165.09 65.6662 163.641 69.5396C162.312 73.413 161.647 78.86 161.647 85.8805V250.56C161.647 267.022 158.929 279.55 153.492 288.145C148.055 296.739 140.142 301.036 129.752 301.036C126.248 301.036 123.348 300.43 121.053 299.22C118.878 298.01 117.126 296.497 115.797 294.681C114.468 292.865 113.502 290.929 112.898 288.871C112.415 286.813 112.173 284.937 112.173 283.242C112.173 282.395 112.415 281.85 112.898 281.608C113.502 281.366 114.287 281.245 115.254 281.245C116.22 281.245 117.308 281.245 118.516 281.245C119.724 281.124 120.993 280.821 122.322 280.337C123.53 279.853 124.738 278.885 125.946 277.432C127.275 275.98 128.423 273.861 129.389 271.077C130.356 268.293 131.141 264.783 131.745 260.547C132.349 256.31 132.651 251.105 132.651 244.932V89.5118C132.651 78.6179 133.98 69.4186 136.638 61.9138C139.417 54.4091 142.981 48.2964 147.33 43.5757C151.68 38.855 156.573 35.4658 162.01 33.4081C167.567 31.3503 173.125 30.3214 178.682 30.3214C180.253 30.3214 182.367 30.503 185.025 30.8661C187.683 31.1082 190.583 31.774 193.724 32.8634C196.986 33.9528 200.248 35.5263 203.51 37.5841C206.772 39.5208 209.853 42.1837 212.752 45.573C215.048 42.1837 217.585 39.5208 220.364 37.5841C223.143 35.5263 225.861 33.9528 228.519 32.8634C231.298 31.774 233.895 31.1082 236.312 30.8661C238.849 30.503 241.023 30.3214 242.836 30.3214C248.635 30.3214 254.313 31.3503 259.871 33.4081C265.549 35.4658 270.563 38.855 274.912 43.5757C279.382 48.2964 283.007 54.4091 285.786 61.9138C288.565 69.4186 289.954 78.6179 289.954 89.5118V254.918C289.954 258.791 290.377 262.302 291.222 265.449C292.189 268.475 293.397 271.198 294.847 273.619C296.418 275.919 298.23 277.916 300.284 279.611C302.338 281.184 304.452 282.516 306.627 283.605Z" fill="url(#paint1_linear_36_82)"/>
<defs>
<linearGradient id="paint0_linear_36_82" x1="154" y1="-62" x2="154" y2="392" gradientUnits="userSpaceOnUse">
<stop/>
<stop offset="1" stop-color="#ACACAC"/>
</linearGradient>
<linearGradient id="paint1_linear_36_82" x1="154" y1="-62" x2="154" y2="392" gradientUnits="userSpaceOnUse">
<stop/>
<stop offset="1" stop-color="#ACACAC"/>
</linearGradient>
</defs>
</svg>
