<?xml version="1.0" encoding="UTF-8"?>
<svg id="Layer_1" xmlns="http://www.w3.org/2000/svg" version="1.1" viewBox="0 0 88 112">
  <!-- Generator: Adobe Illustrator 29.6.1, SVG Export Plug-In . SVG Version: 2.1.1 Build 9)  -->
  <path d="M26.6,10.12c-2.29.3-4.47.95-6.52,1.95-2.03,1-3.8,2.36-5.33,4.09-1.49,1.73-2.69,3.83-3.59,6.29-.86,2.46-1.29,5.31-1.29,8.53,0,2.06.22,3.93.65,5.59.43,1.63.95,3.03,1.54,4.19.6,1.13,1.2,2.01,1.79,2.64.6.63,1.06.95,1.39.95.27,0,.45-.12.55-.35.13-.23.33-.35.6-.35s.45.17.55.5c.1.33.15.68.15,1.05,0,.86-.15,1.71-.45,2.54-.27.8-.63,1.51-1.1,2.15-.46.6-1,1.1-1.59,1.5-.6.37-1.21.55-1.84.55-.7,0-1.28-.22-1.74-.65-.63-.4-1.44-1.11-2.44-2.15-.96-1.06-1.91-2.43-2.84-4.09-.9-1.7-1.68-3.71-2.34-6.04-.63-2.36-.95-5.04-.95-8.03,0-3.59.43-6.8,1.29-9.63.86-2.86,2.01-5.36,3.44-7.48,1.46-2.13,3.15-3.94,5.08-5.44,1.93-1.5,3.95-2.71,6.08-3.64,2.12-.93,4.28-1.6,6.47-2,2.19-.43,4.28-.65,6.27-.65.53,0,1.05.12,1.54.35.5.2.93.5,1.29.9.37.37.66.81.9,1.35.23.53.35,1.1.35,1.7v70.85c.96-.17,1.89-.28,2.79-.35.93-.07,1.81-.13,2.64-.2,1.2-.07,1.96.3,2.29,1.1.37.83.42,1.76.15,2.79-.23,1.03-.7,1.98-1.39,2.84-.7.86-1.49,1.31-2.39,1.35-.76,0-1.49.02-2.19.05-.66.03-1.33.08-1.99.15-.17,2.96-.48,5.9-.95,8.83-.46,2.96-1.24,5.62-2.34,7.98-1.1,2.39-2.59,4.32-4.48,5.79-1.86,1.5-4.27,2.24-7.22,2.24-1.73,0-3.3-.32-4.73-.95-1.39-.6-2.59-1.45-3.59-2.54-1-1.06-1.76-2.33-2.29-3.79-.53-1.46-.8-3.06-.8-4.79,0-2.59.51-4.89,1.54-6.89,1.06-2,2.46-3.76,4.18-5.29,1.76-1.53,3.75-2.83,5.98-3.89,2.22-1.03,4.52-1.9,6.87-2.59V10.12ZM19.62,101.98c1.13,0,2.09-.42,2.89-1.25.8-.83,1.46-1.96,1.99-3.39.53-1.4.93-3.03,1.2-4.89.3-1.83.51-3.76.65-5.79-3.39,1.03-5.96,2.46-7.72,4.29-1.76,1.86-2.64,4.07-2.64,6.64,0,1.56.35,2.68,1.05,3.34.7.7,1.56,1.05,2.59,1.05Z"/>
  <path d="M86.06,80.07c.4.27.48.67.25,1.2-.23.53-.66,1.06-1.29,1.6-.63.57-1.38,1.05-2.24,1.45s-1.73.58-2.59.55c-.83-.03-1.64-.28-2.44-.75-.8-.47-1.51-1.18-2.14-2.15-.6-1-1.1-2.23-1.49-3.69-.37-1.46-.55-3.21-.55-5.24V25.74c0-1.93-.2-3.43-.6-4.49-.37-1.06-.81-1.83-1.34-2.3-.5-.5-1.03-.78-1.59-.85-.53-.1-.96-.15-1.29-.15-.37,0-.83.05-1.39.15-.56.1-1.11.43-1.64,1-.5.53-.93,1.4-1.29,2.59-.37,1.16-.55,2.84-.55,5.04v55.18c.1,0,.2.05.3.15.13.13.2.25.2.35,0,.27-.2.53-.6.8-.37.3-.83.57-1.39.8-.56.27-1.21.47-1.94.6-.7.17-1.36.25-1.99.25-.66,0-1.26-.08-1.79-.25-.5-.17-.75-.73-.75-1.7V25.74c0-1.93-.18-3.43-.55-4.49-.33-1.06-.75-1.83-1.24-2.3-.5-.5-1.03-.78-1.59-.85-.53-.1-1-.15-1.39-.15-.33,0-.78.05-1.34.15-.53.07-1.06.35-1.59.85-.53.47-1,1.23-1.39,2.3-.37,1.06-.55,2.56-.55,4.49v45.26c0,4.52-.75,7.97-2.24,10.33-1.49,2.36-3.67,3.54-6.52,3.54-.96,0-1.76-.17-2.39-.5-.6-.33-1.08-.75-1.44-1.25-.37-.5-.63-1.03-.8-1.6-.13-.57-.2-1.08-.2-1.55,0-.23.07-.38.2-.45.17-.07.38-.1.65-.1h.9c.33-.03.68-.12,1.05-.25.33-.13.66-.4,1-.8.37-.4.68-.98.95-1.75.27-.77.48-1.73.65-2.89.17-1.16.25-2.59.25-4.29V26.74c0-2.99.37-5.52,1.1-7.58.76-2.06,1.74-3.74,2.94-5.04,1.2-1.3,2.54-2.23,4.03-2.79,1.53-.57,3.05-.85,4.58-.85.43,0,1.01.05,1.74.15.73.07,1.53.25,2.39.55.9.3,1.79.73,2.69,1.3.9.53,1.74,1.26,2.54,2.2.63-.93,1.33-1.66,2.09-2.2.76-.57,1.51-1,2.24-1.3.76-.3,1.48-.48,2.14-.55.7-.1,1.29-.15,1.79-.15,1.59,0,3.15.28,4.68.85,1.56.57,2.94,1.5,4.13,2.79,1.23,1.3,2.22,2.98,2.99,5.04.76,2.06,1.15,4.59,1.15,7.58v45.45c0,1.06.12,2.03.35,2.89.27.83.6,1.58,1,2.25.43.63.93,1.18,1.49,1.65.56.43,1.15.8,1.74,1.1Z"/>
</svg>